<svg width="38" height="38" viewBox="0 0 38 38" fill="none" xmlns="http://www.w3.org/2000/svg">
<circle cx="19" cy="19" r="19" fill="url(#paint0_linear_3135_123446)"/>
<path d="M19.7544 12.4392C19.7544 11.1438 20.8045 10.0937 22.0998 10.0937C23.3951 10.0937 24.4452 11.1438 24.4452 12.4392L24.4452 19.2422L19.7544 19.2422L19.7544 12.4392Z" fill="white"/>
<path d="M19.7539 26.1347C19.7539 27.4798 18.6634 28.5703 17.3183 28.5703C15.9731 28.5703 14.8827 27.4798 14.8827 26.1347L14.8827 19.2425L19.7539 19.2425L19.7539 26.1347Z" fill="white"/>
<path d="M11.8159 14.6781C11.8159 13.8311 12.5025 13.1445 13.3495 13.1445C14.1964 13.1445 14.883 13.8311 14.883 14.6781L14.883 19.2435L11.8159 19.2435L11.8159 14.6781Z" fill="white"/>
<path d="M11.8159 21.5642C11.8159 22.6603 10.9274 23.5488 9.83133 23.5488C8.73528 23.5488 7.84675 22.6603 7.84675 21.5642L7.84675 19.2437L11.8159 19.2437L11.8159 21.5642Z" fill="white"/>
<path d="M33.1475 20.7451C33.1475 21.5725 32.4768 22.2432 31.6494 22.2432C30.822 22.2432 30.1513 21.5725 30.1513 20.7451L30.1513 19.247L33.1475 19.247L33.1475 20.7451Z" fill="white"/>
<path d="M4.85156 17.75C4.85156 16.9227 5.52227 16.252 6.34962 16.252C7.17698 16.252 7.84769 16.9227 7.84769 17.75L7.84769 19.2481H4.85156L4.85156 17.75Z" fill="white"/>
<path d="M27.5122 24.7047C27.5122 25.5517 26.8256 26.2383 25.9787 26.2383C25.1317 26.2383 24.4451 25.5517 24.4451 24.7047L24.4451 19.2424L27.5122 19.2424L27.5122 24.7047Z" fill="white"/>
<path d="M27.5122 14.316C27.5122 13.5687 28.118 12.9629 28.8653 12.9629C29.6126 12.9629 30.2185 13.5687 30.2185 14.316L30.2185 19.2412L27.5122 19.2412L27.5122 14.316Z" fill="white"/>
<defs>
<linearGradient id="paint0_linear_3135_123446" x1="19" y1="8.14286" x2="19" y2="26.6905" gradientUnits="userSpaceOnUse">
<stop stop-color="#6F56FD"/>
<stop offset="1" stop-color="#00CABE"/>
<stop offset="1" stop-color="#00CABE"/>
</linearGradient>
</defs>
</svg>
